HIERARCHY
ROOT SpineBase
{
  OFFSET 0.000000 0.000000 0.000000
  CHANNELS 6 Xposition Yposition Zposition Zrotation Xrotation Yrotation
  JOINT SpineMid
  {
    OFFSET 0.000000 32.135959 0.000000
    CHANNELS 3 Zrotation Xrotation Yrotation
    JOINT SpineShoulder
    {
      OFFSET -0.363952 23.790574 -0.613851
      CHANNELS 3 Zrotation Xrotation Yrotation
      JOINT Neck
      {
        OFFSET -0.197490 7.862543 -0.547213
        CHANNELS 3 Zrotation Xrotation Yrotation
        JOINT Head
        {
          OFFSET -1.189529 12.602853 3.931269
          CHANNELS 3 Zrotation Xrotation Yrotation
          End Site
          {
            OFFSET 0 0 0
          }
        }
      }
      JOINT ShoulderLeft
      {
        OFFSET -8.481907 -3.183710 10.834430
        CHANNELS 3 Zrotation Xrotation Yrotation
        JOINT ElbowLeft
        {
          OFFSET -1.343329 -26.025363 -17.795162
          CHANNELS 3 Zrotation Xrotation Yrotation
          JOINT WristLeft
          {
            OFFSET 1.026173 -18.018981 23.467834
            CHANNELS 3 Zrotation Xrotation Yrotation
            JOINT HandLeft
            {
              OFFSET -1.266886 -4.752689 2.683627
              CHANNELS 3 Zrotation Xrotation Yrotation
              JOINT HandTipLeft
              {
                OFFSET -0.078976 0.920569 0.051114
                CHANNELS 3 Zrotation Xrotation Yrotation
                End Site
                {
                  OFFSET 0 0 0
                }
              }
              JOINT ThumbLeft
              {
                OFFSET -0.012194 1.871671 -2.083178
                CHANNELS 3 Zrotation Xrotation Yrotation
                End Site
                {
                  OFFSET 0 0 0
                }
              }
            }
          }
        }
      }
      JOINT ShoulderRight
      {
        OFFSET -2.755504 -5.103036 -10.645663
        CHANNELS 3 Zrotation Xrotation Yrotation
        JOINT ElbowRight
        {
          OFFSET -6.727920 -26.343870 -0.961088
          CHANNELS 3 Zrotation Xrotation Yrotation
          JOINT WristRight
          {
            OFFSET -4.615121 -22.455833 2.207188
            CHANNELS 3 Zrotation Xrotation Yrotation
            JOINT HandRight
            {
              OFFSET 1.298728 -4.854798 1.847756
              CHANNELS 3 Zrotation Xrotation Yrotation
              JOINT HandTipRight
              {
                OFFSET 0.332369 -6.790371 2.240016
                CHANNELS 3 Zrotation Xrotation Yrotation
                End Site
                {
                  OFFSET 0 0 0
                }
              }
              JOINT ThumbRight
              {
                OFFSET -3.939100 0.904594 -2.810018
                CHANNELS 3 Zrotation Xrotation Yrotation
                End Site
                {
                  OFFSET 0 0 0
                }
              }
            }
          }
        }
      }
    }
  }
  JOINT HipLeft
  {
    OFFSET -3.112923 0.307835 -2.408488
    CHANNELS 3 Zrotation Xrotation Yrotation
    JOINT KneeLeft
    {
      OFFSET 16.954000 -19.401973 13.039858
      CHANNELS 3 Zrotation Xrotation Yrotation
      JOINT AnkleLeft
      {
        OFFSET 4.315992 -31.505842 4.295129
        CHANNELS 3 Zrotation Xrotation Yrotation
        JOINT FootLeft
        {
          OFFSET -5.590695 -6.917355 -2.887254
          CHANNELS 3 Zrotation Xrotation Yrotation
          End Site
          {
            OFFSET 0 0 0
          }
        }
      }
    }
  }
  JOINT HipRight
  {
    OFFSET 1.027087 1.040606 -3.979300
    CHANNELS 3 Zrotation Xrotation Yrotation
    JOINT KneeRight
    {
      OFFSET -0.589229 -24.260132 2.910844
      CHANNELS 3 Zrotation Xrotation Yrotation
      JOINT AnkleRight
      {
        OFFSET 7.843340 -33.549738 3.126848
        CHANNELS 3 Zrotation Xrotation Yrotation
        JOINT FootRight
        {
          OFFSET -1.499085 -5.941554 1.554204
          CHANNELS 3 Zrotation Xrotation Yrotation
          End Site
          {
            OFFSET 0 0 0
          }
        }
      }
    }
  }
}
MOTION
Frames: 6
Frame Time: 0.033333
108.633809 63.415833 319.570199 -0.000000 0.000000 20.777865 -0.000000 -0.000000 -20.777865 -0.000000 0.000000 0.000000 -0.000000 0.000000 0.000000 0.000000 0.000000 0.000000 -0.000000 0.000000 0.000000 -0.000000 0.000000 0.000000 -0.000000 0.000000 0.000000 -0.000000 0.000000 0.000000 0.000000 0.000000 0.000000 0.000000 0.000000 0.000000 -0.000000 0.000000 0.000000 -0.000000 0.000000 0.000000 -0.000000 0.000000 0.000000 -0.000000 0.000000 0.000000 0.000000 0.000000 0.000000 0.000000 0.000000 0.000000 -0.000000 -0.000000 -20.777865 -0.000000 0.000000 0.000000 -0.000000 0.000000 0.000000 0.000000 0.000000 0.000000 -0.000000 -0.000000 -20.777865 -0.000000 0.000000 0.000000 -0.000000 0.000000 0.000000 0.000000 0.000000 0.000000
108.344838 63.365932 319.607319 -0.185372 -0.093726 24.053094 0.207477 0.010033 -24.053263 -0.000000 0.000000 0.000000 -0.000000 0.000000 0.000000 0.000000 0.000000 0.000000 -0.000000 0.000000 0.000000 -0.000000 0.000000 0.000000 -0.000000 0.000000 0.000000 -0.000000 0.000000 0.000000 0.000000 0.000000 0.000000 0.000000 0.000000 0.000000 -0.000000 0.000000 0.000000 -0.930954 -0.911044 0.088118 -0.179896 -0.186791 -0.811608 -2.226570 2.871236 -0.186004 0.000000 0.000000 0.000000 0.000000 0.000000 0.000000 0.085831 1.116426 -23.585626 0.554231 -0.965276 -0.461773 1.207963 -2.718964 1.754563 0.000000 0.000000 0.000000 0.841563 -0.484884 -23.952261 -0.780408 0.194846 -0.097048 -0.000000 0.000000 0.000000 0.000000 0.000000 0.000000
108.057309 63.327933 319.655434 -0.374903 -0.202491 27.036448 0.425976 0.009944 -27.037147 -0.000000 0.000000 0.000000 -0.000000 0.000000 0.000000 0.000000 0.000000 0.000000 -0.659178 0.379954 0.432190 0.651093 -1.814541 -0.501020 -0.007287 1.429642 0.073212 -0.000000 0.000000 0.000000 0.000000 0.000000 0.000000 0.000000 0.000000 0.000000 -1.040020 0.007210 0.036084 -0.745731 -1.840443 0.135896 -0.294789 -0.142652 -1.516556 -4.391192 5.357455 -0.245743 0.000000 0.000000 0.000000 0.000000 0.000000 0.000000 0.363577 2.037635 -26.123015 0.949138 -1.793001 -0.898165 2.276249 -4.744758 3.083170 0.000000 0.000000 0.000000 1.657457 -1.003919 -26.831219 -1.556528 0.348655 -0.190509 0.235664 -0.885429 0.286438 0.000000 0.000000 0.000000
107.771222 63.301836 319.714544 -0.568644 -0.326318 29.761068 0.655618 0.001001 -29.762693 -0.000000 0.000000 0.000000 -0.000000 0.000000 0.000000 0.000000 0.000000 0.000000 -0.882323 0.482401 0.580220 0.865780 -2.428568 -0.671154 -0.011050 1.937318 0.098300 -0.000000 0.000000 0.000000 0.000000 0.000000 0.000000 0.000000 0.000000 0.000000 -1.435148 -0.034836 0.060627 -1.125259 -2.729744 0.193588 -0.386590 0.075780 -2.141249 -6.389876 7.476107 -0.192977 0.000000 0.000000 0.000000 0.000000 0.000000 0.000000 0.789691 2.770806 -28.420064 1.201038 -2.499641 -1.319669 3.156698 -6.100480 3.960257 0.000000 0.000000 0.000000 2.455975 -1.545775 -29.447837 -2.328191 0.461149 -0.281212 0.345910 -1.272257 0.414445 0.000000 0.000000 0.000000
107.486578 63.287641 319.784649 -0.766646 -0.465239 32.258035 0.061541 -0.104992 -32.286869 0.658334 0.521465 0.021969 -0.000000 0.000000 0.000000 0.000000 0.000000 0.000000 -1.034078 0.527331 0.682150 1.010642 -2.846120 -0.788436 -0.014615 2.306619 0.115672 -0.000000 0.000000 0.000000 0.000000 0.000000 0.000000 0.000000 0.000000 0.000000 -1.744874 -0.107638 0.089169 -1.507397 -3.595134 0.247969 -0.487007 0.429187 -2.704397 -8.139032 9.236656 -0.049017 0.000000 0.000000 0.000000 0.000000 0.000000 0.000000 1.331450 3.324110 -30.503131 1.321675 -3.098163 -1.734706 3.821222 -6.816933 4.372758 0.000000 0.000000 0.000000 3.244907 -2.101777 -31.833262 -3.095235 0.532097 -0.369981 0.452739 -1.629353 0.534530 0.000000 0.000000 0.000000
107.203376 63.285347 319.865749 -0.968963 -0.619290 34.555753 0.084661 -0.107997 -34.593685 0.837607 0.660675 0.026891 0.541035 0.798501 -0.096917 0.000000 0.000000 0.000000 -1.114285 0.515146 0.737701 1.087662 -3.066839 -0.853111 -0.017843 2.537502 0.125305 -0.000000 0.000000 0.000000 0.000000 0.000000 0.000000 0.000000 0.000000 0.000000 -1.967960 -0.211286 0.121609 -1.890761 -4.434401 0.301717 -0.620983 0.889555 -3.219323 -9.569731 10.645456 0.162013 0.000000 0.000000 0.000000 0.000000 0.000000 0.000000 1.964471 3.705190 -32.394973 1.319065 -3.598566 -2.150268 4.259376 -6.922313 4.317423 0.000000 0.000000 0.000000 4.031318 -2.665416 -34.015992 -3.857504 0.561307 -0.457639 0.557266 -1.961264 0.648082 0.000000 0.000000 0.000000
